<svg id="Filled_stroke_cutting_expand" height="512" viewBox="0 0 512 512" width="512" xmlns="http://www.w3.org/2000/svg" data-name="Filled stroke cutting expand"><g><g><path d="m64 488v-107.478a30 30 0 0 1 19.127-27.96l124.873-48.562h96l124.873 48.562a30 30 0 0 1 19.127 27.96v107.478z" fill="#666"/><path d="m224 104h-48l-1.394-4.183a20 20 0 0 1 13.479-25.556l35.915-10.261z" fill="#80262d"/><path d="m312 312-56 72-56-72 16-64h80z" fill="#ffd4cf"/><path d="m296 248h-80l-6.182 24.729 20.726 20.727a36 36 0 0 0 50.912 0l20.726-20.727z" fill="#fbb8b0"/><path d="m184 104v111.159a20 20 0 0 0 7.048 15.24l36.608 31.111-3.656 2.774 17.858 17.858a20 20 0 0 0 28.284 0l17.858-17.858-3.712-2.817 36.728-31.481a20 20 0 0 0 6.984-15.186v-110.8z" fill="#fff"/><path d="m328 104h-144v111.159a20 20 0 0 0 7.048 15.24l43.352 36.841a20 20 0 0 0 12.951 4.76h17.249a20 20 0 0 0 13.015-4.815l43.4-37.2a20 20 0 0 0 6.985-15.185z" fill="#ffd4cf"/><path d="m184 96v40h16l16-32z" fill="#80262d"/><path d="m328 136h-16l-16-32h32z" fill="#80262d"/><path d="m152 136h22a10 10 0 0 1 10 10v28a10 10 0 0 1 -10 10h-22a0 0 0 0 1 0 0v-48a0 0 0 0 1 0 0z" fill="#ffd4cf" transform="matrix(-1 0 0 -1 336 320)"/><path d="m338 136h22a0 0 0 0 1 0 0v48a0 0 0 0 1 0 0h-22a10 10 0 0 1 -10-10v-28a10 10 0 0 1 10-10z" fill="#ffd4cf" transform="matrix(-1 0 0 -1 688 320)"/><path d="m228 104h93.585a20 20 0 0 0 18.973-13.675l11.442-34.325-77.256-29.714a40 40 0 0 0 -45.088 11.727l-21.656 25.987v20a20 20 0 0 0 20 20z" fill="#b33f42"/><path d="m192 304-40 64 80-16z" fill="#f2f2f2"/><path d="m184 368v120h24v-136z" fill="#b33f42"/><path d="m320 304 40 64-80-16z" fill="#f2f2f2"/><g fill="#b33f42"><path d="m328 368v120h-24v-136z"/><path d="m288 264.284-17.858 17.858a20 20 0 0 1 -28.284 0l-17.858-17.858 32-24.284z"/></g></g><g><path d="m456 408v-27.478a37.763 37.763 0 0 0 -24.228-35.416l-101.258-39.379-3.73-5.967a7.99 7.99 0 0 0 -10.33-2.926l-10.788-43.154 20.556-17.619a27.966 27.966 0 0 0 9.778-21.261v-22.8h14a18.021 18.021 0 0 0 18-18v-28a18.021 18.021 0 0 0 -18-18h-14v-19.6a27.963 27.963 0 0 0 12.148-15.16l11.442-34.328a8 8 0 0 0 -4.718-10l-77.256-29.712a47.733 47.733 0 0 0 -46.033 6.4l9.6 12.8a31.824 31.824 0 0 1 30.687-4.264l70.121 26.97-9.024 27.071a11.984 11.984 0 0 1 -8.367 7.823h-99.61a12.021 12.021 0 0 1 -8.99-11.618v-17.1l14.146-16.982-12.292-10.239-16 19.2a8 8 0 0 0 -1.622 3.209l-14.344 4.1a28 28 0 0 0 -18.872 35.777l1.394 4.184a8 8 0 0 0 7.59 5.469v16h-14a18.021 18.021 0 0 0 -18 18v28a18.021 18.021 0 0 0 18 18h14v23.159a27.951 27.951 0 0 0 9.868 21.335l20.424 17.357-10.746 42.983a7.99 7.99 0 0 0 -10.33 2.926l-3.73 5.968-48.386 18.816 5.8 14.912 28.412-11.049-22.096 35.353a8 8 0 0 0 8.353 12.085l22.431-4.486v108.641h-40v-56h-16v56h-48v-99.478a21.864 21.864 0 0 1 14.026-20.5l36.873-14.34-5.8-14.912-36.873 14.34a37.763 37.763 0 0 0 -24.226 35.412v107.478a8 8 0 0 0 8 8h384a8 8 0 0 0 8-8v-64h-16v56h-48v-56h-16v56h-40v-108.641l22.431 4.486a8 8 0 0 0 8.353-12.085l-22.095-35.353 81.285 31.611a21.864 21.864 0 0 1 14.026 20.504v27.478zm-228.048-47.032 21.734 27.944a8 8 0 0 0 12.628 0l21.734-27.944 11.952 2.391v116.641h-80v-116.641zm45.9-14.09a8.013 8.013 0 0 0 -1.626 3.226l-16.226 20.865-16.228-20.869a8.013 8.013 0 0 0 -1.626-3.226l-13.246-15.885-16.2-20.826 9.971-39.888 17.529 17.525a28.034 28.034 0 0 0 39.6 0l17.523-17.524 9.971 39.888-16.2 20.826zm-37.712-81.765 19.86-15.07 19.858 15.07-11.373 11.372a12.011 12.011 0 0 1 -16.97 0zm83.86-152.731v15.618h-3.056l-7.809-15.618zm32 33.618v28a2 2 0 0 1 -2 2h-14v-32h14a2 2 0 0 1 2 2zm-169.035-58.106a11.9 11.9 0 0 1 7.318-5.94l9.717-2.776v5.2a27.843 27.843 0 0 0 2.526 11.622h-20.684a11.88 11.88 0 0 1 1.123-8.106zm20.091 24.106-8 16h-3.056v-16zm-41.056 64a2 2 0 0 1 -2-2v-28a2 2 0 0 1 2-2h14v32zm30 39.159v-71.159h8a8 8 0 0 0 7.155-4.422l13.789-27.578h2.429a28.123 28.123 0 0 0 4.627.382h63.247l13.6 27.2a8 8 0 0 0 7.153 4.418h8v70.8a11.984 11.984 0 0 1 -4.19 9.111l-31.828 27.281-23.146-17.566a8 8 0 0 0 -9.672 0l-23.224 17.626-31.711-26.952a11.976 11.976 0 0 1 -4.229-9.141zm.238 103.554 1.216-.472 18.993 22.792 4.522 5.815-48.36 9.672zm-.238 161.287v-111.841l8-1.6v113.441zm128 0h-8v-113.441l8 1.6zm23.391-123.48-48.36-9.672 4.522-5.815 18.994-22.792 1.215.472z"/><path d="m280 144h16v24h-16z"/><path d="m216 144h16v24h-16z"/><path d="m233.39 228.5a25.98 25.98 0 0 0 15.648-5.274l6.962-5.226 6.962 5.221a26.234 26.234 0 0 0 40.628-12.691l-15.18-5.06a10.233 10.233 0 0 1 -15.848 4.951l-11.762-8.821a8 8 0 0 0 -9.6 0l-11.762 8.821a10.233 10.233 0 0 1 -15.848-4.951l-15.18 5.06a25.957 25.957 0 0 0 17.067 16.745 26.518 26.518 0 0 0 7.913 1.225z"/><path d="m248 408h16v16h-16z"/><path d="m248 448h16v16h-16z"/></g></g></svg>