<svg id="Capa_1" enable-background="new 0 0 512 512" height="512" viewBox="0 0 512 512" width="512" xmlns="http://www.w3.org/2000/svg"><g><path d="m69.628 7.502h372.747v496.996h-372.747z" fill="#d7e4f7"/><path d="m69.628 38.564h186.373l31.063-31.062h-217.436z" fill="#f75f79"/><path d="m100.69 69.609h310.623v403.809h-310.623z" fill="#62dbfb"/><path d="m69.628 504.498h50v-31.079h-18.938v-403.81h18.938v-31.045h-50z" fill="#bed2ee"/><path d="m69.628 7.502h50v31.062h-50z" fill="#cf3086"/><path d="m100.69 69.609h18.938v403.809h-18.938z" fill="#68b3f3"/><g><g><path d="m380.25 272.68v-33.36l-28.108-7.254c-2.402-9.682-6.219-18.803-11.235-27.125l14.745-25.004-23.589-23.589-25.004 14.746c-8.323-5.015-17.444-8.832-27.126-11.235l-7.254-28.108h-33.36l-7.254 28.108c-9.682 2.403-18.803 6.219-27.126 11.235l-25.004-14.746-23.589 23.589 14.745 25.004c-5.015 8.322-8.832 17.444-11.235 27.125l-28.108 7.254v33.36l28.108 7.254c2.402 9.682 6.219 18.803 11.235 27.125l-14.745 25.004 23.589 23.589 25.004-14.746c8.323 5.015 17.444 8.832 27.126 11.235l7.254 28.108h33.36l7.254-28.108c9.682-2.403 18.803-6.219 27.126-11.235l25.004 14.746 23.589-23.589-14.745-25.004c5.015-8.322 8.832-17.444 11.235-27.125z" fill="#fe9738"/></g></g><g><g fill="#fe7701"><path d="m231.213 168.895c2.273 1.341 5.076 1.361 7.392.097 6.103-3.329 12.595-6.032 19.39-8.029 2.53-.744 4.495-2.74 5.154-5.294l4.729-18.326c.648-2.512 2.534-4.438 4.901-5.213l-.098-.379h-33.36l-7.254 28.108c-3.621.899-7.164 1.996-10.616 3.279z"/><path d="m190.433 336.147c-2.404-2.404-2.877-6.13-1.15-9.058l9.613-16.3c1.341-2.273 1.361-5.076.097-7.392-3.329-6.102-6.032-12.594-8.029-19.389-.744-2.53-2.74-4.495-5.294-5.154l-18.326-4.729c-3.292-.85-5.592-3.819-5.592-7.218v-21.809c0-3.4 2.3-6.369 5.592-7.218l18.326-4.729c2.553-.659 4.55-2.624 5.294-5.154 1.997-6.795 4.7-13.287 8.029-19.389 1.264-2.317 1.244-5.119-.097-7.392l-9.613-16.301c-1.727-2.928-1.254-6.654 1.15-9.058l8.376-8.376-18.871-11.129-23.589 23.589 14.745 25.004c-5.015 8.322-8.832 17.444-11.235 27.125l-28.108 7.254v33.36l28.108 7.254c2.402 9.682 6.219 18.803 11.235 27.125l-14.745 25.004 23.589 23.589 18.871-11.129z"/><path d="m267.878 374.657-4.729-18.326c-.659-2.553-2.624-4.55-5.154-5.294-6.795-1.997-13.287-4.7-19.39-8.029-2.317-1.264-5.119-1.244-7.392.097l-9.762 5.757c3.452 1.283 6.995 2.38 10.616 3.279l7.254 28.108h33.36l.098-.379c-2.366-.775-4.252-2.701-4.901-5.213z"/></g></g><circle cx="256.001" cy="256" fill="#62dbfb" r="62.125"/><g><path d="m279.943 382.123 6.164-23.886c7.264-2.133 14.264-5.032 20.901-8.655l21.246 12.529c2.946 1.737 6.695 1.262 9.113-1.156l23.589-23.589c2.418-2.419 2.894-6.167 1.156-9.113l-12.529-21.246c3.623-6.638 6.522-13.639 8.655-20.901l23.886-6.164c3.312-.854 5.626-3.842 5.626-7.262v-33.36c0-3.42-2.314-6.407-5.626-7.262l-23.886-6.164c-2.133-7.263-5.032-14.264-8.655-20.901l12.529-21.246c1.737-2.946 1.262-6.694-1.156-9.113l-23.589-23.589c-2.42-2.418-6.167-2.896-9.113-1.156l-21.246 12.529c-6.638-3.623-13.638-6.522-20.901-8.655l-6.164-23.886c-.854-3.312-3.842-5.626-7.262-5.626h-33.359c-3.42 0-6.407 2.314-7.262 5.626l-6.164 23.886c-7.264 2.133-14.264 5.032-20.901 8.655l-21.246-12.529c-2.948-1.739-6.695-1.262-9.113 1.156l-23.589 23.589c-2.418 2.419-2.894 6.167-1.156 9.113l12.529 21.246c-3.623 6.638-6.522 13.639-8.655 20.901l-23.886 6.164c-3.312.854-5.626 3.842-5.626 7.262v33.359c0 3.42 2.314 6.407 5.626 7.262l23.886 6.164c2.133 7.263 5.032 14.264 8.655 20.901l-12.529 21.246c-1.737 2.946-1.262 6.694 1.156 9.113l23.589 23.589c2.419 2.418 6.165 2.894 9.113 1.156l21.246-12.529c6.638 3.623 13.638 6.522 20.901 8.655l6.164 23.886c.854 3.312 3.842 5.626 7.262 5.626h33.359c3.42.001 6.407-2.313 7.262-5.625zm-13.072-9.374h-21.738l-5.803-22.482c-.688-2.667-2.782-4.742-5.455-5.405-8.842-2.193-17.273-5.686-25.062-10.379-2.359-1.42-5.308-1.436-7.681-.036l-19.998 11.793-15.372-15.372 11.793-19.998c1.399-2.372 1.386-5.321-.036-7.681-4.693-7.789-8.186-16.221-10.379-25.062-.663-2.673-2.738-4.768-5.405-5.455l-22.482-5.803v-21.738l22.482-5.803c2.667-.688 4.742-2.782 5.405-5.455 2.193-8.841 5.686-17.272 10.379-25.062 1.422-2.359 1.436-5.309.036-7.681l-11.793-19.998 15.372-15.372 19.998 11.793c2.373 1.399 5.32 1.385 7.681-.036 7.788-4.693 16.22-8.186 25.062-10.379 2.673-.663 4.768-2.738 5.455-5.405l5.803-22.482h21.738l5.803 22.482c.688 2.667 2.782 4.742 5.455 5.405 8.842 2.193 17.273 5.686 25.062 10.379 2.359 1.421 5.308 1.436 7.681.036l19.998-11.793 15.372 15.372-11.793 19.998c-1.399 2.372-1.386 5.321.036 7.681 4.693 7.789 8.186 16.221 10.379 25.062.663 2.673 2.738 4.768 5.405 5.455l22.482 5.803v21.738l-22.482 5.803c-2.667.688-4.742 2.782-5.405 5.455-2.193 8.841-5.686 17.272-10.379 25.062-1.422 2.359-1.436 5.309-.036 7.681l11.793 19.998-15.372 15.372-19.998-11.793c-2.373-1.399-5.32-1.385-7.681.036-7.788 4.693-16.22 8.186-25.062 10.379-2.673.663-4.768 2.738-5.455 5.405z"/><path d="m239.662 77.11c4.143 0 7.5-3.357 7.5-7.5s-3.357-7.5-7.5-7.5h-138.97c-4.143 0-7.5 3.357-7.5 7.5v403.81c0 4.143 3.357 7.5 7.5 7.5h138.97c4.143 0 7.5-3.357 7.5-7.5s-3.357-7.5-7.5-7.5h-131.47v-388.81z"/><path d="m272.341 480.92h138.97c4.143 0 7.5-3.357 7.5-7.5v-403.81c0-4.143-3.357-7.5-7.5-7.5h-138.97c-4.143 0-7.5 3.357-7.5 7.5s3.357 7.5 7.5 7.5h131.47v388.81h-131.47c-4.143 0-7.5 3.357-7.5 7.5s3.358 7.5 7.5 7.5z"/><path d="m442.372 250.01c4.143 0 7.5-3.357 7.5-7.5v-235.01c0-4.143-3.357-7.5-7.5-7.5h-372.741c-4.356.25-6.857 2.75-7.503 7.502l.003 496.998c0 4.143 3.357 7.5 7.5 7.5h372.74c4.143 0 7.5-3.357 7.5-7.5v-229.31c0-4.143-3.357-7.5-7.5-7.5s-7.5 3.357-7.5 7.5v221.81h-357.74v-450.936h178.87c1.989 0 3.896-.79 5.304-2.196l28.868-28.868h144.698v227.51c.001 4.142 3.358 7.5 7.501 7.5zm-189.477-218.946h-175.764v-16.062h191.826z"/><path d="m335.666 46.064c4.143 0 7.5-3.357 7.5-7.5s-3.357-7.5-7.5-7.5h-4.813c-4.143 0-7.5 3.357-7.5 7.5s3.357 7.5 7.5 7.5z"/><path d="m373.489 46.064c4.143 0 7.5-3.357 7.5-7.5s-3.357-7.5-7.5-7.5h-4.812c-4.143 0-7.5 3.357-7.5 7.5s3.357 7.5 7.5 7.5z"/><path d="m411.313 31.064h-4.813c-4.143 0-7.5 3.357-7.5 7.5s3.357 7.5 7.5 7.5h4.813c4.143 0 7.5-3.357 7.5-7.5s-3.357-7.5-7.5-7.5z"/><path d="m325.625 256c0-38.391-31.233-69.624-69.624-69.624s-69.624 31.233-69.624 69.624 31.233 69.624 69.624 69.624 69.624-31.233 69.624-69.624zm-15.513-7.5h-25.096c-.636-15.69-3.279-31.312-8.11-42.966 17.563 7.302 30.524 23.516 33.206 42.966zm-54.111 62.124c-.6 0-4.445-2.289-8.239-13.165-3.209-9.202-5.208-21.057-5.766-33.959h28.011c-.559 12.902-2.557 24.757-5.766 33.959-3.794 10.876-7.64 13.165-8.24 13.165zm-14.005-62.124c.559-12.902 2.557-24.757 5.766-33.959 3.794-10.876 7.64-13.165 8.239-13.165s4.445 2.289 8.239 13.165c3.209 9.202 5.208 21.057 5.766 33.959zm-6.9-42.966c-4.831 11.654-7.474 27.276-8.11 42.966h-25.096c2.683-19.45 15.643-35.664 33.206-42.966zm-33.205 57.966h25.096c.636 15.69 3.279 31.312 8.11 42.966-17.564-7.302-30.524-23.516-33.206-42.966zm75.016 42.966c4.831-11.654 7.474-27.276 8.11-42.966h25.096c-2.683 19.45-15.644 35.664-33.206 42.966z"/></g></g></svg>