<svg id="Capa_1" enable-background="new 0 0 512 512" height="512" viewBox="0 0 512 512" width="512" xmlns="http://www.w3.org/2000/svg"><g><path d="m512 132.163h-512v-79.09c0-11.495 9.318-20.813 20.813-20.813h470.374c11.495 0 20.813 9.318 20.813 20.813z" fill="#62a4fb"/><path d="m491.187 32.26h-26.016c11.495 0 20.813 9.318 20.813 20.813v79.089h26.016v-79.089c0-11.494-9.318-20.813-20.813-20.813z" fill="#5392f9"/><path d="m491.187 479.74h-470.374c-11.495 0-20.813-9.318-20.813-20.813v-326.764h512v326.764c0 11.495-9.318 20.813-20.813 20.813z" fill="#e6f7fe"/><path d="m485.984 132.163v326.764c0 11.495-9.318 20.813-20.813 20.813h26.016c11.495 0 20.813-9.318 20.813-20.813v-326.764z" fill="#d3effd"/><path d="m233.106 90.62v-16.818c0-4.552 3.69-8.241 8.241-8.241h229.111c4.552 0 8.241 3.69 8.241 8.241v16.818c0 4.552-3.69 8.241-8.241 8.241h-229.111c-4.551.001-8.241-3.689-8.241-8.241z" fill="#e6f7fe"/><circle cx="49.951" cy="82.211" fill="#df646e" r="16.65"/><circle cx="116.553" cy="82.211" fill="#ffe07d" r="16.65"/><circle cx="183.154" cy="82.211" fill="#b3e59f" r="16.65"/><g><circle cx="126.959" cy="305.951" fill="#e27f86" r="93.659"/><path d="m178.891 228.003c9.922 14.863 15.71 32.721 15.71 51.932 0 51.726-41.932 93.659-93.659 93.659-19.211 0-37.069-5.788-51.932-15.71 16.793 25.155 45.434 41.726 77.948 41.726 51.726 0 93.659-41.932 93.659-93.659.001-32.515-16.571-61.156-41.726-77.948z" fill="#df646e"/></g><path d="m480.239 342.968h-227.865c-3.414 0-6.181 2.767-6.181 6.181v36.396c0 3.414 2.767 6.181 6.181 6.181h227.866c3.414 0 6.181-2.767 6.181-6.181v-36.396c0-3.414-2.768-6.181-6.182-6.181z" fill="#b3e59f"/><g><g><g><path d="m298.477 325.125c-.022 0-.044 0-.067-.001-4.268-.037-7.696-3.526-7.66-7.792.049-5.668.1-12.021.147-18.621h-36.978c-2.733 0-5.264-1.444-6.653-3.798-1.39-2.354-1.432-5.267-.112-7.66 5.025-9.108 30.35-54.862 35.442-61.109 5.843-7.17 12.109-6.2 14.53-5.45 5.119 1.585 8.759 6.598 9.274 12.77.271 3.244.189 27.734.055 49.795h3.664c4.268 0 7.726 3.459 7.726 7.726s-3.459 7.726-7.726 7.726h-3.768c-.062 8.465-.12 15.369-.149 18.754-.037 4.244-3.489 7.659-7.725 7.66zm-31.436-41.867h23.957c.101-16.887.161-33.209.113-42.03-5.346 8.781-15.288 26.283-24.07 42.03z" fill="#e27f86"/></g></g><g><g><path d="m467.057 325.125c-.022 0-.044 0-.067-.001-4.268-.037-7.696-3.526-7.66-7.792.049-5.668.1-12.021.147-18.621h-36.978c-2.733 0-5.264-1.444-6.653-3.798-1.39-2.354-1.433-5.267-.113-7.66 5.025-9.108 30.35-54.862 35.443-61.109 5.843-7.172 12.107-6.201 14.53-5.449 5.119 1.585 8.759 6.598 9.273 12.771.271 3.243.189 27.732.055 49.794h3.665c4.268 0 7.726 3.459 7.726 7.726s-3.459 7.726-7.726 7.726h-3.769c-.061 8.464-.119 15.368-.148 18.754-.037 4.243-3.488 7.658-7.725 7.659zm-31.435-41.867h23.956c.101-16.885.162-33.207.113-42.028-5.348 8.782-15.289 26.283-24.069 42.028z" fill="#e27f86"/></g></g><g><g><path d="m366.309 325.125c-17.971 0-32.592-14.621-32.592-32.592v-39.766c0-17.971 14.621-32.592 32.592-32.592s32.592 14.621 32.592 32.592v39.766c-.001 17.971-14.621 32.592-32.592 32.592zm0-89.496c-9.451 0-17.139 7.689-17.139 17.139v39.766c0 9.45 7.688 17.139 17.139 17.139s17.139-7.689 17.139-17.139v-39.766c0-9.451-7.688-17.139-17.139-17.139z" fill="#e27f86"/></g></g></g><g fill="#d82f3c"><path d="m126.959 308.631c-22.622 0-41.027 18.405-41.027 41.027 0 4.267 3.459 7.726 7.726 7.726s7.726-3.459 7.726-7.726c0-14.102 11.473-25.574 25.574-25.574s25.574 11.473 25.574 25.574c0 4.267 3.459 7.726 7.726 7.726s7.726-3.459 7.726-7.726c.002-22.622-18.403-41.027-41.025-41.027z"/><path d="m88.381 285.732 1.895 1.895c1.509 1.509 3.486 2.263 5.463 2.263s3.955-.755 5.463-2.263c3.018-3.018 3.018-7.909 0-10.927l-1.895-1.895 1.895-1.895c3.018-3.017 3.018-7.909 0-10.927-3.017-3.018-7.909-3.018-10.927 0l-1.895 1.895-1.895-1.895c-3.017-3.018-7.909-3.017-10.927 0-3.018 3.018-3.018 7.909 0 10.927l1.895 1.895-1.895 1.895c-3.018 3.017-3.018 7.909 0 10.927 1.509 1.509 3.486 2.263 5.463 2.263s3.955-.755 5.463-2.263z"/><path d="m176.464 274.806 1.895-1.895c3.018-3.017 3.018-7.909 0-10.927-3.017-3.017-7.909-3.017-10.927 0l-1.895 1.895-1.895-1.895c-3.017-3.017-7.909-3.017-10.927 0s-3.018 7.909 0 10.927l1.895 1.895-1.895 1.895c-3.018 3.017-3.018 7.909 0 10.927 1.509 1.509 3.486 2.263 5.463 2.263s3.955-.755 5.463-2.263l1.895-1.895 1.895 1.895c1.509 1.509 3.486 2.263 5.463 2.263s3.955-.755 5.463-2.263c3.018-3.017 3.018-7.909 0-10.927z"/></g></g></svg>